<svg clip-rule="evenodd" fill-rule="evenodd" height="6.827in" image-rendering="optimizeQuality" shape-rendering="geometricPrecision" text-rendering="geometricPrecision" viewBox="0 0 6.82666 6.82666" width="6.827in" xmlns="http://www.w3.org/2000/svg"><g id="Layer_x0020_1"><rect fill="#2cb742" height="6.827" rx="1.456" width="6.827"/><g fill="#fff"><path d="m3.31635 1.41565c-1.05644.0502402-1.89005.930051-1.88688 1.98762.00099606.322067.0787402.626165.215972.894819l-.21061 1.02234c-.0114409.0553386.0384685.103791.0934016.0907598l1.00178-.237315c.25735.128177.5465.202217.852457.206921 1.0797.0164488 1.98002-.840815 2.01374-1.9202.0360315-1.157-.918886-2.10028-2.07985-2.04494zm1.19535 3.0799c-.293386.293386-.683484.454953-1.09836.454953-.242949 0-.475575-.0545433-.691413-.162024l-.139417-.0694882-.614264.145504.129244-.627618-.0686969-.134587c-.112047-.219413-.168823-.456677-.168823-.705157 0-.414965.161567-.804992.454945-1.09844.290728-.290724.687173-.454933 1.09843-.454933.414878 0 .804976.161622 1.09835.454933.293386.293382.454953.68348.454953 1.09837.00006693.411252-.164138.807681-.454945 1.09849z"/><path d="m4.3761 3.82735-.384276-.110339c-.0505-.0144685-.104909-.00013386-.141736.0373504l-.0939252.0957165c-.0396654.0403976-.0997598.0533661-.152189.0321417-.181787-.0735157-.564205-.413571-.661783-.583602-.0282283-.0490394-.0235433-.110319.0110315-.15515l.0820472-.106094c.032122-.0415787.0388701-.0974449.0176457-.145508l-.16163-.365697c-.0387362-.0875236-.150654-.113043-.223776-.0512205-.107209.0907559-.234476.228512-.249941.381228-.0272953.269248.088185.60865.524756 1.0162.504453.470799.908374.533016 1.17142.46928.149193-.0360984.268386-.180929.34361-.299524.0512953-.0809803.0107795-.188343-.081252-.21478z"/></g></g></svg>